<svg width="14" height="14" viewBox="0 0 14 14" fill="none" xmlns="http://www.w3.org/2000/svg">
    <path
        d="M6.59069 0.900419L6.59064 0.900424C5.96645 0.961618 5.57355 1.04047 5.07319 1.20561C3.0639 1.8688 1.54587 3.53275 1.05063 5.61704C0.932167 6.11064 0.9 6.40468 0.9 6.99795C0.9 7.6853 0.956867 8.10454 1.13667 8.71792C1.16796 8.828 1.2258 8.99885 1.27837 9.14473C1.30479 9.21803 1.33025 9.28605 1.3508 9.33796C1.36104 9.3638 1.37037 9.38644 1.37818 9.40403C1.38205 9.41275 1.38595 9.42116 1.38971 9.42849L1.38978 9.42862C1.39225 9.43345 1.39869 9.44604 1.40806 9.45729L1.41388 9.46427L1.41417 9.46398C1.44205 9.49186 1.47569 9.49339 1.48094 9.49363C1.48111 9.49364 1.48124 9.49364 1.48135 9.49365C1.49163 9.49419 1.50011 9.49313 1.50429 9.49252C1.51339 9.49121 1.52198 9.48899 1.52793 9.48732C1.54076 9.48374 1.55617 9.47851 1.57188 9.47283C1.60394 9.46122 1.64486 9.44492 1.68542 9.42789C1.72606 9.41083 1.76769 9.39247 1.80121 9.37654C1.81786 9.36864 1.83348 9.36088 1.84633 9.35388C1.8527 9.35041 1.85936 9.34661 1.86554 9.34267C1.86956 9.34011 1.87803 9.33462 1.88656 9.32681C1.9122 9.3038 1.91884 9.27541 1.92089 9.26438C1.92356 9.24992 1.9233 9.23682 1.92273 9.22803C1.92156 9.20989 1.91767 9.19079 1.91344 9.17385C1.90468 9.13884 1.89022 9.09662 1.87331 9.055L1.87271 9.05352L1.87269 9.05353C1.79307 8.86617 1.67353 8.48423 1.61868 8.25068C1.51158 7.77937 1.48793 7.55671 1.49033 6.97411C1.49274 6.47497 1.49991 6.37233 1.55421 6.07011L1.55423 6.07001C1.80924 4.64244 2.55208 3.43084 3.70258 2.56856L3.70259 2.56855C5.55722 1.17818 8.11957 1.10906 10.0505 2.39955L10.0506 2.39961C10.2092 2.50531 10.3456 2.60369 10.4386 2.67727C10.4578 2.69242 10.4747 2.70621 10.4893 2.71855C10.446 2.74872 10.3905 2.787 10.3308 2.82789L10.3305 2.82814C10.2036 2.9159 10.1119 2.98586 10.0622 3.05509C10.0348 3.09321 10.0167 3.13531 10.0138 3.18309C10.0109 3.22862 10.0225 3.26993 10.0374 3.30611C10.0485 3.33509 10.0648 3.36285 10.0819 3.38543C10.0964 3.40444 10.1214 3.43327 10.155 3.44908C10.1652 3.45407 10.1775 3.45858 10.185 3.4613L10.1855 3.46151C10.1981 3.46612 10.2147 3.4719 10.2344 3.47863C10.274 3.49213 10.3283 3.51004 10.3932 3.53103C10.5232 3.57301 10.6969 3.62769 10.8839 3.68476C10.884 3.6848 10.8841 3.68483 10.8842 3.68487L10.9134 3.58922C11.6432 3.81712 11.728 3.82924 11.8032 3.72499L6.59069 0.900419ZM6.59069 0.900419C6.69804 0.889946 6.94381 0.892798 7.18999 0.90214C7.43779 0.911542 7.69837 0.928026 7.83812 0.94691L7.83856 0.946971C8.93256 1.09974 10.0289 1.57488 10.8487 2.25394L10.8491 2.25427C10.9004 2.29721 10.9483 2.33564 10.9842 2.36302C10.9877 2.36569 10.991 2.36824 10.9942 2.37064M6.59069 0.900419L11.8976 2.06824C11.8673 2.03579 11.8299 2.00387 11.7808 1.98684C11.7294 1.969 11.6775 1.9716 11.6257 1.98621C11.5315 2.0128 11.413 2.08749 11.2495 2.20009L11.2493 2.2002C11.1676 2.2567 11.0914 2.3077 11.035 2.34442C11.0197 2.35433 11.0061 2.36312 10.9942 2.37064M11.9638 2.932L11.9638 2.93209C11.9565 3.25828 11.951 3.44688 11.9423 3.56052C11.9338 3.67057 11.9217 3.73185 11.8843 3.78347L11.8638 2.92978L11.9638 2.932ZM11.9638 2.932L11.9807 2.19749L11.9817 2.15597L11.953 2.12599L11.8981 2.06877L11.9638 2.932ZM10.9942 2.37064C11.0075 2.38068 11.0182 2.3884 11.0258 2.39365L11.0314 2.39733C11.0328 2.39826 11.0334 2.39862 11.0334 2.39859L11.0322 2.39794L11.0281 2.39602C11.0264 2.39525 11.0228 2.39379 11.018 2.39239C11.0142 2.39125 11.0042 2.38854 10.991 2.38854C10.9795 2.38854 10.9707 2.39059 10.9673 2.39144C10.963 2.3925 10.9597 2.39363 10.9579 2.39429C10.9561 2.39495 10.9546 2.39558 10.9534 2.39607C10.9523 2.39655 10.9515 2.39691 10.9512 2.39705C10.9498 2.39774 10.9496 2.39792 10.9513 2.39696C10.9544 2.39523 10.9598 2.39204 10.9679 2.38708C10.9752 2.38259 10.9841 2.37708 10.9942 2.37064ZM10.975 3.09593L11.1279 3.14479L11.1281 3.14485L11.3595 3.21825L11.3689 3.09951C11.3689 3.09939 11.3689 3.09927 11.3689 3.09915C11.3759 3.00307 11.3802 2.89466 11.3812 2.82156L11.1659 2.96649L11.1657 2.96666L10.975 3.09593Z"
        fill="#FFBB00" stroke="#FFBB00" stroke-width="0.2" />
    <path
        d="M11.9848 4.00511L11.9847 4.00521L11.8222 4.10218L11.739 4.15187L11.7861 4.23661L11.8828 4.41066C11.8828 4.41073 11.8829 4.4108 11.8829 4.41088C12.072 4.75612 12.2847 5.32428 12.3822 5.74526C12.4869 6.20228 12.5129 6.44198 12.5129 6.99794C12.5129 7.57515 12.4846 7.81684 12.3655 8.30525L12.3654 8.30548C11.8131 10.5934 9.85342 12.2796 7.50038 12.4963L7.50037 12.4963C5.89982 12.644 4.2399 12.0526 3.14897 10.945L3.14891 10.945L3.05722 10.852L3.18591 10.7667C3.18598 10.7666 3.18605 10.7666 3.18612 10.7665C3.33546 10.6686 3.43221 10.6017 3.49064 10.5461C3.52114 10.517 3.54624 10.4865 3.56287 10.4511C3.58019 10.4142 3.58503 10.3789 3.58503 10.3461C3.58503 10.304 3.58146 10.251 3.54937 10.1996C3.51828 10.1498 3.4691 10.115 3.40995 10.085C3.29444 10.0265 3.08678 9.96057 2.72632 9.85039L2.72628 9.85038C2.53895 9.79321 2.35924 9.74082 2.22057 9.70263C2.15132 9.68357 2.0917 9.66788 2.04623 9.65688C2.02357 9.6514 2.00364 9.6469 1.9874 9.6437C1.97426 9.64111 1.9549 9.63753 1.93825 9.63753C1.89237 9.63753 1.82647 9.63982 1.77063 9.68219C1.71403 9.72514 1.68876 9.79232 1.67391 9.86472C1.64448 10.0082 1.63939 10.2683 1.6346 10.7256L1.63461 10.7256L1.7346 10.7267L1.6346 10.7256L11.9848 4.00511ZM11.9848 4.00511C12.0322 3.97694 12.0789 3.95248 12.1165 3.93591C12.1349 3.92784 12.154 3.92031 12.1714 3.91553C12.1796 3.91328 12.192 3.91036 12.2058 3.90966C12.2127 3.9093 12.2237 3.90929 12.2365 3.91209C12.2489 3.9148 12.2698 3.92169 12.2885 3.94035L12.2885 3.94031L12.2909 3.94283C12.3003 3.95294 12.3079 3.96486 12.3116 3.9709C12.3167 3.97905 12.3223 3.98869 12.3282 3.99913C12.3399 4.02013 12.3544 4.04743 12.3705 4.07886C12.4028 4.1419 12.4434 4.22425 12.4853 4.31188C12.5687 4.48625 12.6598 4.68617 12.7037 4.79909M11.9848 4.00511L2.73175 11.3658L2.73191 11.366C3.22149 11.8383 3.69055 12.1717 4.28929 12.4674C6.01679 13.3225 8.0184 13.3201 9.74119 12.455C11.5312 11.5575 12.7483 9.85889 13.0561 7.83729L13.0562 7.83677C13.0827 7.65616 13.0972 7.3406 13.0996 7.03297C13.1021 6.72573 13.0925 6.41492 13.0683 6.24445L13.0683 6.24435C12.9923 5.71186 12.8645 5.21213 12.7037 4.79909M12.7037 4.79909L12.6105 4.83536M12.7037 4.79909C12.7037 4.7991 12.7037 4.79911 12.7037 4.79912L12.6105 4.83536M12.6105 4.83536C12.7681 5.24024 12.8942 5.7324 12.9693 6.25849L12.6105 4.83536ZM1.72284 11.4907C1.72262 11.4906 1.72241 11.4904 1.72219 11.4902L1.78551 11.4128L1.72344 11.4912L1.72284 11.4907ZM2.52422 10.4051L2.52379 10.405C2.40704 10.3679 2.29146 10.334 2.22735 10.3171V10.5449V10.7104L2.39326 10.5981C2.47908 10.5385 2.56083 10.4817 2.62374 10.437C2.59622 10.4279 2.56334 10.4174 2.52422 10.4051ZM2.56617 11.0661L2.62277 11.1486L2.55532 11.1948L2.49658 11.1379L2.56617 11.0661Z"
        fill="#FFBB00" stroke="#FFBB00" stroke-width="0.2" />
    <mask id="path-3-outside-1_0_1" maskUnits="userSpaceOnUse" x="1.73346" y="3.93747" width="10"
        height="6" fill="black">
        <rect fill="white" x="1.73346" y="3.93747" width="10" height="6" />
        <path
            d="M4.24872 4.8984C3.98931 4.98083 3.79778 5.14569 3.68625 5.3857C3.62807 5.50935 3.61837 5.56268 3.61837 5.73724C3.61837 5.92392 3.62564 5.96029 3.69838 6.10818C3.74444 6.20031 3.77596 6.27546 3.77111 6.28031C3.76868 6.28274 3.71535 6.30698 3.65474 6.33122C3.49473 6.40153 3.3032 6.60276 3.21107 6.79671L3.13349 6.96157L3.12621 7.65738L3.11894 8.35561H3.31289H3.50927V7.73496C3.50927 7.31796 3.51897 7.08037 3.53837 7.01248C3.57716 6.87914 3.77838 6.67792 3.91172 6.63912C4.04749 6.60033 4.91058 6.60033 5.04635 6.63912C5.17969 6.67792 5.38092 6.87914 5.41971 7.01248C5.47547 7.19916 5.48759 7.19189 5.12393 7.19189C4.84997 7.19189 4.79179 7.19916 4.74815 7.23311C4.71178 7.26462 4.66087 7.40766 4.56147 7.74951C4.48874 8.00892 4.40631 8.295 4.37964 8.3847L4.33115 8.54956H3.53352H2.73346V8.74352V8.93747H7.00043H11.2674V8.74352V8.54956H10.9159C10.7219 8.54956 10.5643 8.54229 10.5643 8.53017C10.5643 8.52047 10.6346 8.26591 10.7219 7.96285C10.8092 7.6598 10.8795 7.38827 10.8795 7.3616C10.8795 7.33251 10.8528 7.28402 10.8189 7.2525C10.7607 7.19189 10.7534 7.19189 10.3388 7.19189H9.91457L9.90003 7.06097C9.86366 6.77489 9.62122 6.44032 9.37635 6.33122C9.31574 6.30698 9.26241 6.28274 9.25998 6.28031C9.25513 6.27546 9.28665 6.20031 9.33272 6.10818C9.40545 5.96029 9.41272 5.92392 9.41272 5.73724C9.41272 5.56268 9.40302 5.50935 9.34484 5.3857C9.02481 4.69959 8.07929 4.69959 7.75927 5.3857C7.70108 5.50935 7.69139 5.56268 7.69139 5.73724C7.69139 5.92392 7.69866 5.96029 7.77139 6.10818C7.81746 6.20031 7.84897 6.27546 7.84412 6.28031C7.8417 6.28274 7.78836 6.30698 7.72775 6.33122C7.56774 6.40153 7.37621 6.60276 7.28409 6.79671L7.2065 6.96157L7.19923 7.65738L7.19196 8.35561H7.38591H7.58229V7.73496C7.58229 7.31796 7.59199 7.08037 7.61138 7.01248C7.65017 6.87914 7.8514 6.67792 7.98474 6.63912C8.12051 6.60033 8.9836 6.60033 9.11937 6.63912C9.25271 6.67792 9.45394 6.87914 9.49273 7.01248C9.54849 7.19916 9.56061 7.19189 9.19695 7.19189C8.92299 7.19189 8.8648 7.19916 8.82116 7.23311C8.7848 7.26462 8.73388 7.40766 8.63448 7.74951C8.56175 8.00892 8.47932 8.295 8.45265 8.3847L8.40416 8.54956H7.44895C6.92285 8.54956 6.4913 8.54229 6.4913 8.53017C6.4913 8.52047 6.56161 8.26591 6.64889 7.96285C6.73617 7.6598 6.80648 7.38827 6.80648 7.3616C6.80648 7.33251 6.77981 7.28402 6.74586 7.2525C6.68768 7.19189 6.68041 7.19189 6.26583 7.19189H5.84156L5.82701 7.06097C5.79065 6.77489 5.5482 6.44032 5.30334 6.33122C5.24273 6.30698 5.18939 6.28274 5.18697 6.28031C5.18212 6.27546 5.21364 6.20031 5.2597 6.10818C5.33243 5.96029 5.3397 5.92392 5.3397 5.73724C5.3397 5.56268 5.33001 5.50935 5.27182 5.3857C5.19909 5.22812 5.07544 5.08508 4.93725 4.9978C4.74815 4.87658 4.45479 4.83294 4.24872 4.8984ZM4.75542 5.34206C4.88876 5.43662 4.9518 5.56753 4.9518 5.74936C4.9518 6.02332 4.76512 6.21 4.49358 6.21C4.14932 6.21 3.9287 5.92392 4.01597 5.59663C4.04992 5.47298 4.19781 5.31297 4.31418 5.27903C4.44994 5.23781 4.64632 5.26448 4.75542 5.34206ZM8.82844 5.34206C8.96178 5.43662 9.02481 5.56753 9.02481 5.74936C9.02481 6.02332 8.83813 6.21 8.5666 6.21C8.22233 6.21 8.00171 5.92392 8.08899 5.59663C8.12293 5.47298 8.27082 5.31297 8.38719 5.27903C8.52296 5.23781 8.71934 5.26448 8.82844 5.34206ZM6.34584 7.59919C6.34584 7.61616 6.23674 8.00892 6.12522 8.3847L6.07673 8.54956H5.41244C5.04635 8.54956 4.74572 8.53987 4.74572 8.53017C4.74572 8.5132 4.85482 8.12044 4.96635 7.74223L5.01483 7.5798H5.67912C6.04521 7.5798 6.34584 7.5895 6.34584 7.59919ZM10.4189 7.59919C10.4189 7.61616 10.3098 8.00892 10.1982 8.3847L10.1497 8.54956H9.48545C9.11937 8.54956 8.81874 8.53987 8.81874 8.53017C8.81874 8.5132 8.92784 8.12044 9.03936 7.74223L9.08785 7.5798H9.75214C10.1182 7.5798 10.4189 7.5895 10.4189 7.59919Z" />
    </mask>
    <path
        d="M4.24872 4.8984C3.98931 4.98083 3.79778 5.14569 3.68625 5.3857C3.62807 5.50935 3.61837 5.56268 3.61837 5.73724C3.61837 5.92392 3.62564 5.96029 3.69838 6.10818C3.74444 6.20031 3.77596 6.27546 3.77111 6.28031C3.76868 6.28274 3.71535 6.30698 3.65474 6.33122C3.49473 6.40153 3.3032 6.60276 3.21107 6.79671L3.13349 6.96157L3.12621 7.65738L3.11894 8.35561H3.31289H3.50927V7.73496C3.50927 7.31796 3.51897 7.08037 3.53837 7.01248C3.57716 6.87914 3.77838 6.67792 3.91172 6.63912C4.04749 6.60033 4.91058 6.60033 5.04635 6.63912C5.17969 6.67792 5.38092 6.87914 5.41971 7.01248C5.47547 7.19916 5.48759 7.19189 5.12393 7.19189C4.84997 7.19189 4.79179 7.19916 4.74815 7.23311C4.71178 7.26462 4.66087 7.40766 4.56147 7.74951C4.48874 8.00892 4.40631 8.295 4.37964 8.3847L4.33115 8.54956H3.53352H2.73346V8.74352V8.93747H7.00043H11.2674V8.74352V8.54956H10.9159C10.7219 8.54956 10.5643 8.54229 10.5643 8.53017C10.5643 8.52047 10.6346 8.26591 10.7219 7.96285C10.8092 7.6598 10.8795 7.38827 10.8795 7.3616C10.8795 7.33251 10.8528 7.28402 10.8189 7.2525C10.7607 7.19189 10.7534 7.19189 10.3388 7.19189H9.91457L9.90003 7.06097C9.86366 6.77489 9.62122 6.44032 9.37635 6.33122C9.31574 6.30698 9.26241 6.28274 9.25998 6.28031C9.25513 6.27546 9.28665 6.20031 9.33272 6.10818C9.40545 5.96029 9.41272 5.92392 9.41272 5.73724C9.41272 5.56268 9.40302 5.50935 9.34484 5.3857C9.02481 4.69959 8.07929 4.69959 7.75927 5.3857C7.70108 5.50935 7.69139 5.56268 7.69139 5.73724C7.69139 5.92392 7.69866 5.96029 7.77139 6.10818C7.81746 6.20031 7.84897 6.27546 7.84412 6.28031C7.8417 6.28274 7.78836 6.30698 7.72775 6.33122C7.56774 6.40153 7.37621 6.60276 7.28409 6.79671L7.2065 6.96157L7.19923 7.65738L7.19196 8.35561H7.38591H7.58229V7.73496C7.58229 7.31796 7.59199 7.08037 7.61138 7.01248C7.65017 6.87914 7.8514 6.67792 7.98474 6.63912C8.12051 6.60033 8.9836 6.60033 9.11937 6.63912C9.25271 6.67792 9.45394 6.87914 9.49273 7.01248C9.54849 7.19916 9.56061 7.19189 9.19695 7.19189C8.92299 7.19189 8.8648 7.19916 8.82116 7.23311C8.7848 7.26462 8.73388 7.40766 8.63448 7.74951C8.56175 8.00892 8.47932 8.295 8.45265 8.3847L8.40416 8.54956H7.44895C6.92285 8.54956 6.4913 8.54229 6.4913 8.53017C6.4913 8.52047 6.56161 8.26591 6.64889 7.96285C6.73617 7.6598 6.80648 7.38827 6.80648 7.3616C6.80648 7.33251 6.77981 7.28402 6.74586 7.2525C6.68768 7.19189 6.68041 7.19189 6.26583 7.19189H5.84156L5.82701 7.06097C5.79065 6.77489 5.5482 6.44032 5.30334 6.33122C5.24273 6.30698 5.18939 6.28274 5.18697 6.28031C5.18212 6.27546 5.21364 6.20031 5.2597 6.10818C5.33243 5.96029 5.3397 5.92392 5.3397 5.73724C5.3397 5.56268 5.33001 5.50935 5.27182 5.3857C5.19909 5.22812 5.07544 5.08508 4.93725 4.9978C4.74815 4.87658 4.45479 4.83294 4.24872 4.8984ZM4.75542 5.34206C4.88876 5.43662 4.9518 5.56753 4.9518 5.74936C4.9518 6.02332 4.76512 6.21 4.49358 6.21C4.14932 6.21 3.9287 5.92392 4.01597 5.59663C4.04992 5.47298 4.19781 5.31297 4.31418 5.27903C4.44994 5.23781 4.64632 5.26448 4.75542 5.34206ZM8.82844 5.34206C8.96178 5.43662 9.02481 5.56753 9.02481 5.74936C9.02481 6.02332 8.83813 6.21 8.5666 6.21C8.22233 6.21 8.00171 5.92392 8.08899 5.59663C8.12293 5.47298 8.27082 5.31297 8.38719 5.27903C8.52296 5.23781 8.71934 5.26448 8.82844 5.34206ZM6.34584 7.59919C6.34584 7.61616 6.23674 8.00892 6.12522 8.3847L6.07673 8.54956H5.41244C5.04635 8.54956 4.74572 8.53987 4.74572 8.53017C4.74572 8.5132 4.85482 8.12044 4.96635 7.74223L5.01483 7.5798H5.67912C6.04521 7.5798 6.34584 7.5895 6.34584 7.59919ZM10.4189 7.59919C10.4189 7.61616 10.3098 8.00892 10.1982 8.3847L10.1497 8.54956H9.48545C9.11937 8.54956 8.81874 8.53987 8.81874 8.53017C8.81874 8.5132 8.92784 8.12044 9.03936 7.74223L9.08785 7.5798H9.75214C10.1182 7.5798 10.4189 7.5895 10.4189 7.59919Z"
        fill="#FFBB00" />
    <path
        d="M4.24872 4.8984C3.98931 4.98083 3.79778 5.14569 3.68625 5.3857C3.62807 5.50935 3.61837 5.56268 3.61837 5.73724C3.61837 5.92392 3.62564 5.96029 3.69838 6.10818C3.74444 6.20031 3.77596 6.27546 3.77111 6.28031C3.76868 6.28274 3.71535 6.30698 3.65474 6.33122C3.49473 6.40153 3.3032 6.60276 3.21107 6.79671L3.13349 6.96157L3.12621 7.65738L3.11894 8.35561H3.31289H3.50927V7.73496C3.50927 7.31796 3.51897 7.08037 3.53837 7.01248C3.57716 6.87914 3.77838 6.67792 3.91172 6.63912C4.04749 6.60033 4.91058 6.60033 5.04635 6.63912C5.17969 6.67792 5.38092 6.87914 5.41971 7.01248C5.47547 7.19916 5.48759 7.19189 5.12393 7.19189C4.84997 7.19189 4.79179 7.19916 4.74815 7.23311C4.71178 7.26462 4.66087 7.40766 4.56147 7.74951C4.48874 8.00892 4.40631 8.295 4.37964 8.3847L4.33115 8.54956H3.53352H2.73346V8.74352V8.93747H7.00043H11.2674V8.74352V8.54956H10.9159C10.7219 8.54956 10.5643 8.54229 10.5643 8.53017C10.5643 8.52047 10.6346 8.26591 10.7219 7.96285C10.8092 7.6598 10.8795 7.38827 10.8795 7.3616C10.8795 7.33251 10.8528 7.28402 10.8189 7.2525C10.7607 7.19189 10.7534 7.19189 10.3388 7.19189H9.91457L9.90003 7.06097C9.86366 6.77489 9.62122 6.44032 9.37635 6.33122C9.31574 6.30698 9.26241 6.28274 9.25998 6.28031C9.25513 6.27546 9.28665 6.20031 9.33272 6.10818C9.40545 5.96029 9.41272 5.92392 9.41272 5.73724C9.41272 5.56268 9.40302 5.50935 9.34484 5.3857C9.02481 4.69959 8.07929 4.69959 7.75927 5.3857C7.70108 5.50935 7.69139 5.56268 7.69139 5.73724C7.69139 5.92392 7.69866 5.96029 7.77139 6.10818C7.81746 6.20031 7.84897 6.27546 7.84412 6.28031C7.8417 6.28274 7.78836 6.30698 7.72775 6.33122C7.56774 6.40153 7.37621 6.60276 7.28409 6.79671L7.2065 6.96157L7.19923 7.65738L7.19196 8.35561H7.38591H7.58229V7.73496C7.58229 7.31796 7.59199 7.08037 7.61138 7.01248C7.65017 6.87914 7.8514 6.67792 7.98474 6.63912C8.12051 6.60033 8.9836 6.60033 9.11937 6.63912C9.25271 6.67792 9.45394 6.87914 9.49273 7.01248C9.54849 7.19916 9.56061 7.19189 9.19695 7.19189C8.92299 7.19189 8.8648 7.19916 8.82116 7.23311C8.7848 7.26462 8.73388 7.40766 8.63448 7.74951C8.56175 8.00892 8.47932 8.295 8.45265 8.3847L8.40416 8.54956H7.44895C6.92285 8.54956 6.4913 8.54229 6.4913 8.53017C6.4913 8.52047 6.56161 8.26591 6.64889 7.96285C6.73617 7.6598 6.80648 7.38827 6.80648 7.3616C6.80648 7.33251 6.77981 7.28402 6.74586 7.2525C6.68768 7.19189 6.68041 7.19189 6.26583 7.19189H5.84156L5.82701 7.06097C5.79065 6.77489 5.5482 6.44032 5.30334 6.33122C5.24273 6.30698 5.18939 6.28274 5.18697 6.28031C5.18212 6.27546 5.21364 6.20031 5.2597 6.10818C5.33243 5.96029 5.3397 5.92392 5.3397 5.73724C5.3397 5.56268 5.33001 5.50935 5.27182 5.3857C5.19909 5.22812 5.07544 5.08508 4.93725 4.9978C4.74815 4.87658 4.45479 4.83294 4.24872 4.8984ZM4.75542 5.34206C4.88876 5.43662 4.9518 5.56753 4.9518 5.74936C4.9518 6.02332 4.76512 6.21 4.49358 6.21C4.14932 6.21 3.9287 5.92392 4.01597 5.59663C4.04992 5.47298 4.19781 5.31297 4.31418 5.27903C4.44994 5.23781 4.64632 5.26448 4.75542 5.34206ZM8.82844 5.34206C8.96178 5.43662 9.02481 5.56753 9.02481 5.74936C9.02481 6.02332 8.83813 6.21 8.5666 6.21C8.22233 6.21 8.00171 5.92392 8.08899 5.59663C8.12293 5.47298 8.27082 5.31297 8.38719 5.27903C8.52296 5.23781 8.71934 5.26448 8.82844 5.34206ZM6.34584 7.59919C6.34584 7.61616 6.23674 8.00892 6.12522 8.3847L6.07673 8.54956H5.41244C5.04635 8.54956 4.74572 8.53987 4.74572 8.53017C4.74572 8.5132 4.85482 8.12044 4.96635 7.74223L5.01483 7.5798H5.67912C6.04521 7.5798 6.34584 7.5895 6.34584 7.59919ZM10.4189 7.59919C10.4189 7.61616 10.3098 8.00892 10.1982 8.3847L10.1497 8.54956H9.48545C9.11937 8.54956 8.81874 8.53987 8.81874 8.53017C8.81874 8.5132 8.92784 8.12044 9.03936 7.74223L9.08785 7.5798H9.75214C10.1182 7.5798 10.4189 7.5895 10.4189 7.59919Z"
        stroke="#FFBB00" stroke-width="0.2" mask="url(#path-3-outside-1_0_1)" />
</svg>
    