<svg width="20" height="20" viewBox="0 0 20 20" fill="none" xmlns="http://www.w3.org/2000/svg">
    <g filter="url(#filter0_d_1_1063)">
        <path
            d="M13.3288 3.9394V5.28856H14.2203H15.2119H15.3119V5.38856V10.0665V14.6445H15.6059H16H16.1V14.7445V15.1258V15.5072V15.6072H16H10H4H3.9V15.5072V15.1258V14.7445V14.6445H4H4.39407H4.68827L4.69322 10.824L4.69322 10.824L4.70085 6.90108L4.70104 6.80204L4.80007 6.80127L5.78397 6.79364L5.78423 6.79364L6.67119 6.78907V5.59449V4.30042V4.22438L6.74446 4.20406L7.3489 4.03645C7.349 4.03642 7.34911 4.03638 7.34922 4.03635C7.68055 3.94205 9.12423 3.53538 10.5576 3.13383C11.2746 2.9317 11.928 2.74801 12.4038 2.61452C12.6417 2.54778 12.8352 2.49358 12.97 2.45591L13.1266 2.41227L13.1319 2.4108C13.1566 2.40395 13.177 2.39826 13.1868 2.39582L13.1868 2.39578C13.2224 2.38686 13.253 2.39906 13.2715 2.413C13.2871 2.42479 13.2953 2.43816 13.2984 2.44374C13.3051 2.45544 13.3079 2.46593 13.3086 2.46879L13.3086 2.46887C13.3107 2.47669 13.3117 2.48387 13.3121 2.48721C13.3131 2.49539 13.3139 2.50529 13.3145 2.51531C13.3158 2.53609 13.317 2.56574 13.318 2.60256C13.3202 2.67656 13.3221 2.7833 13.3237 2.91457C13.3269 3.17728 13.3288 3.54 13.3288 3.9394ZM12.3466 3.6367C12.3226 3.64325 12.295 3.65079 12.2642 3.65927C12.141 3.6931 11.9659 3.74158 11.7552 3.80015C11.3338 3.91727 10.7703 4.07464 10.1954 4.2356C9.04504 4.55768 7.85119 4.89362 7.6589 4.95055L7.65831 4.95072L7.6339 4.95778V5.88432V6.78856H8.52542H9.51695H9.61695V6.88856V10.8165V14.6445H10.9915H12.3661V9.12585C12.3661 6.88598 12.3642 5.48159 12.3594 4.63753C12.357 4.21539 12.354 3.93398 12.35 3.75846C12.3489 3.70961 12.3478 3.66932 12.3466 3.6367ZM5.66725 7.68382L5.66725 7.68384L5.66725 7.68382ZM5.7021 7.76196C5.68849 7.76232 5.67597 7.76267 5.66454 7.76304C5.66352 7.80972 5.66252 7.87404 5.66157 7.95448C5.65943 8.13524 5.65752 8.39596 5.65593 8.71734C5.65275 9.36002 5.65085 10.2446 5.65085 11.2157V14.6445H7.15254H8.65424V11.1979V7.75127H7.17034C6.73456 7.75127 6.33643 7.75318 6.04643 7.75635C5.90136 7.75794 5.78373 7.75984 5.7021 7.76196ZM13.839 14.6445H14.3492V10.4479V6.25127H13.839H13.3288V10.4479V14.6445H13.839Z"
            fill="#FFBB00" stroke="#FFBB00" stroke-width="0.2" />
        <path
            d="M10.4849 7.70301L10.3828 7.70507V7.60303V6.82506V6.04709V5.94505L10.4849 5.94712L10.8611 5.95474L10.8612 5.95474L11.2349 5.96237L11.3328 5.96437V6.06235V6.82506V7.58777V7.68575L11.2349 7.68775L10.8612 7.69538L10.8611 7.69538L10.4849 7.70301Z"
            fill="#FFBB00" stroke="#FFBB00" stroke-width="0.2" />
        <path
            d="M10.4849 10.4996L10.3828 10.5017V10.3996V9.63437V8.87166V8.77166H10.4828H10.8642H11.2456H11.3462L11.3456 8.87233L11.3405 9.62742L11.3405 9.62775L11.3328 10.3854L11.3319 10.4824L11.2349 10.4844L10.8612 10.492L10.8611 10.492L10.4849 10.4996Z"
            fill="#FFBB00" stroke="#FFBB00" stroke-width="0.2" />
        <path
            d="M10.4828 13.2936H10.3828V13.1936V12.4309V11.6681V11.5681H10.4828H10.8642H11.2456H11.3456V11.6681V12.4309V13.1936V13.2936H11.2456H10.8642H10.4828Z"
            fill="#FFBB00" stroke="#FFBB00" stroke-width="0.2" />
        <path
            d="M6.77118 10.497H6.67118V10.397V9.63426V8.87155V8.77155H6.77118H7.15254H7.53389H7.63389V8.87155V9.63426V10.397V10.497H7.53389H7.15254H6.77118Z"
            fill="#FFBB00" stroke="#FFBB00" stroke-width="0.2" />
        <path
            d="M6.77118 13.2936H6.67118V13.1936V12.4309V11.6681V11.5681H6.77118H7.15254H7.53389H7.63389V11.6681V12.4309V13.1936V13.2936H7.53389H7.15254H6.77118Z"
            fill="#FFBB00" stroke="#FFBB00" stroke-width="0.2" />
    </g>
    <defs>
        <filter id="filter0_d_1_1063" x="0.799988" y="0.292694" width="18.4" height="19.4145"
            filterUnits="userSpaceOnUse" color-interpolation-filters="sRGB">
            <feFlood flood-opacity="0" result="BackgroundImageFix" />
            <feColorMatrix in="SourceAlpha" type="matrix"
                values="0 0 0 0 0 0 0 0 0 0 0 0 0 0 0 0 0 0 127 0" result="hardAlpha" />
            <feOffset dy="1" />
            <feGaussianBlur stdDeviation="1.5" />
            <feComposite in2="hardAlpha" operator="out" />
            <feColorMatrix type="matrix"
                values="0 0 0 0 1 0 0 0 0 0.815755 0 0 0 0 0.309082 0 0 0 0.6 0" />
            <feBlend mode="normal" in2="BackgroundImageFix" result="effect1_dropShadow_1_1063" />
            <feBlend mode="normal" in="SourceGraphic" in2="effect1_dropShadow_1_1063" result="shape" />
        </filter>
    </defs>
</svg>
    