<svg width="18" height="18" viewBox="0 0 18 18" fill="none" xmlns="http://www.w3.org/2000/svg">
    <g filter="url(#filter0_d_1_1080)">
        <path
            d="M5.62472 2C5.52399 2.00006 5.42512 2.02849 5.33844 2.08234C5.25177 2.13618 5.18046 2.21345 5.13198 2.30609L3.06953 6.24039C3.01518 6.34417 2.99183 6.46269 3.00253 6.58057C3.01323 6.69844 3.05748 6.81022 3.12953 6.90136L8.56689 13.7864C8.61967 13.8532 8.68585 13.907 8.76071 13.9439C8.83557 13.9809 8.91728 14 9 14C9.08272 14 9.16443 13.9809 9.23929 13.9439C9.31415 13.907 9.38033 13.8532 9.43311 13.7864L14.8705 6.90136C14.9425 6.81022 14.9868 6.69844 14.9975 6.58057C15.0082 6.46269 14.9848 6.34417 14.9305 6.24039L12.868 2.30609C12.8195 2.21334 12.7481 2.13599 12.6612 2.08214C12.5744 2.02828 12.4754 1.99992 12.3745 2H5.62472ZM4.61674 5.73759L5.95696 3.18029H7.08193L6.22845 5.73759H4.61674ZM6.1077 6.91788L7.55441 10.6539L4.60324 6.91788H6.1077ZM8.99138 11.2307L7.32192 6.91788H10.6113L8.99138 11.2307ZM7.42092 5.73759L8.27364 3.18029H9.73236L10.6301 5.73759H7.42092ZM11.8293 5.73759L10.9316 3.18029H12.0415L13.3825 5.73759H11.8293ZM11.8203 6.91788H13.3953L10.3916 10.7216L11.8203 6.91788Z"
            fill="#FFBB00" />
    </g>
    <defs>
        <filter id="filter0_d_1_1080" x="0" y="0" width="18" height="18"
            filterUnits="userSpaceOnUse" color-interpolation-filters="sRGB">
            <feFlood flood-opacity="0" result="BackgroundImageFix" />
            <feColorMatrix in="SourceAlpha" type="matrix"
                values="0 0 0 0 0 0 0 0 0 0 0 0 0 0 0 0 0 0 127 0" result="hardAlpha" />
            <feOffset dy="1" />
            <feGaussianBlur stdDeviation="1.5" />
            <feComposite in2="hardAlpha" operator="out" />
            <feColorMatrix type="matrix"
                values="0 0 0 0 1 0 0 0 0 0.815755 0 0 0 0 0.309082 0 0 0 0.6 0" />
            <feBlend mode="normal" in2="BackgroundImageFix" result="effect1_dropShadow_1_1080" />
            <feBlend mode="normal" in="SourceGraphic" in2="effect1_dropShadow_1_1080" result="shape" />
        </filter>
    </defs>
</svg>
    