<svg width="16" height="20" viewBox="0 0 16 20" fill="none" xmlns="http://www.w3.org/2000/svg">
    <g filter="url(#filter0_d_1_1077)">
        <path
            d="M8 8.75895L6.9375 9.57876C6.875 9.63132 6.8125 9.63405 6.75 9.58696C6.6875 9.53988 6.66667 9.47934 6.6875 9.40534L7.09375 8.08103L6 7.19816C5.94792 7.1456 5.93229 7.08527 5.95313 7.01717C5.97396 6.94906 6.02083 6.91479 6.09375 6.91437H7.4375L7.84375 5.62159C7.86458 5.54802 7.91667 5.51123 8 5.51123C8.08333 5.51123 8.13542 5.54802 8.15625 5.62159L8.5625 6.91437H9.89062C9.96354 6.91437 10.0131 6.94864 10.0394 7.01717C10.0656 7.08569 10.0525 7.14602 10 7.19816L8.89062 8.08103L9.29688 9.40534C9.31771 9.47892 9.29688 9.53946 9.23438 9.58696C9.17188 9.63447 9.10938 9.63174 9.04688 9.57876L8 8.75895ZM8 14.4819L5.07812 15.4593C4.86979 15.5329 4.67958 15.5066 4.5075 15.3805C4.33542 15.2544 4.24958 15.0862 4.25 14.876V10.8715C3.85417 10.4301 3.54688 9.92561 3.32813 9.35805C3.10938 8.79048 3 8.18613 3 7.545C3 6.1366 3.48437 4.94367 4.45312 3.9662C5.42187 2.98873 6.60417 2.5 8 2.5C9.39583 2.5 10.5781 2.98873 11.5469 3.9662C12.5156 4.94367 13 6.1366 13 7.545C13 8.18613 12.8906 8.79048 12.6719 9.35805C12.4531 9.92561 12.1458 10.4301 11.75 10.8715V14.876C11.75 15.0862 11.664 15.2544 11.4919 15.3805C11.3198 15.5066 11.1298 15.5329 10.9219 15.4593L8 14.4819ZM8 11.3287C9.04167 11.3287 9.92708 10.9609 10.6562 10.2252C11.3854 9.48943 11.75 8.59604 11.75 7.545C11.75 6.49396 11.3854 5.60057 10.6562 4.86484C9.92708 4.12911 9.04167 3.76125 8 3.76125C6.95833 3.76125 6.07292 4.12911 5.34375 4.86484C4.61458 5.60057 4.25 6.49396 4.25 7.545C4.25 8.59604 4.61458 9.48943 5.34375 10.2252C6.07292 10.9609 6.95833 11.3287 8 11.3287ZM5.5 13.867L8 13.2206L10.5 13.867V11.9121C10.1354 12.1223 9.74208 12.2879 9.32 12.409C8.89792 12.5301 8.45792 12.5904 8 12.59C7.54167 12.59 7.10146 12.5295 6.67938 12.4084C6.25729 12.2873 5.86417 12.1221 5.5 11.9127V13.867Z"
            fill="#FFBB00" />
    </g>
    <defs>
        <filter id="filter0_d_1_1077" x="0" y="0.5" width="16" height="19"
            filterUnits="userSpaceOnUse" color-interpolation-filters="sRGB">
            <feFlood flood-opacity="0" result="BackgroundImageFix" />
            <feColorMatrix in="SourceAlpha" type="matrix"
                values="0 0 0 0 0 0 0 0 0 0 0 0 0 0 0 0 0 0 127 0" result="hardAlpha" />
            <feOffset dy="1" />
            <feGaussianBlur stdDeviation="1.5" />
            <feComposite in2="hardAlpha" operator="out" />
            <feColorMatrix type="matrix"
                values="0 0 0 0 1 0 0 0 0 0.815755 0 0 0 0 0.309082 0 0 0 0.6 0" />
            <feBlend mode="normal" in2="BackgroundImageFix" result="effect1_dropShadow_1_1077" />
            <feBlend mode="normal" in="SourceGraphic" in2="effect1_dropShadow_1_1077" result="shape" />
        </filter>
    </defs>
</svg>
    